<?xml version="1.0"?>
<!DOCTYPE svg PUBLIC "-//W3C//DTD SVG 1.1//EN" "http://www.w3.org/Graphics/SVG/1.1/DTD/svg11.dtd">
<svg width="157.08000000000712mm" height="198.08000000000013mm" viewBox="0 0 157.08000000000712 198.08000000000013" xmlns="http://www.w3.org/2000/svg" version="1.1">
<g id="Pocket009" transform="translate(78.540000,99.040000) scale(1,-1)">
<path id="Pocket009_f0000"  d="M -66.99999999997264 -87.5 L -66.99999999997264 -93.5 L -66.99999999997264 -93.5 L -67.0 -97.5 L -67.0 -97.5 L -67.0 -75.0 L -67.0 -75.0 L -66.99999999997264 -87.5 L -66.99999999997264 -87.5 Z " stroke="#191919" stroke-width="0.35 px" style="stroke-width:0.35;stroke-miterlimit:4;stroke-dasharray:none;stroke-linecap:square;fill:#cccccc;fill-opacity:1.0;fill-rule: evenodd"/>
<circle cx="-60.0" cy="-80.49999999999999" r="0.9" stroke="#191919" stroke-width="0.35 px" style="stroke-width:0.35;stroke-miterlimit:4;stroke-dasharray:none;stroke-linecap:square;fill:#cccccc"/>
<path id="Pocket009_f0002"  d="M -66.99999999997264 -87.5 L 67.00000000000001 -87.5 L 67.00000000000001 -87.5 L -66.99999999997264 -87.5 L -66.99999999997264 -87.5 Z " stroke="#191919" stroke-width="0.35 px" style="stroke-width:0.35;stroke-miterlimit:4;stroke-dasharray:none;stroke-linecap:square;fill:#cccccc;fill-opacity:1.0;fill-rule: evenodd"/>
<path id="Pocket009_f0003"  d="M -66.99999999997264 -93.5 L 67.00000000000001 -93.5 L 67.00000000000001 -87.5 L -66.99999999997264 -87.5 L -66.99999999997264 -93.5 Z " stroke="#191919" stroke-width="0.35 px" style="stroke-width:0.35;stroke-miterlimit:4;stroke-dasharray:none;stroke-linecap:square;fill:#cccccc;fill-opacity:1.0;fill-rule: evenodd"/>
<path id="Pocket009_f0004"  d="M 67.00000000000001 -93.5 L -66.99999999997264 -93.5 L -66.99999999997264 -93.5 L 67.00000000000001 -93.5 L 67.00000000000001 -93.5 Z " stroke="#191919" stroke-width="0.35 px" style="stroke-width:0.35;stroke-miterlimit:4;stroke-dasharray:none;stroke-linecap:square;fill:#cccccc;fill-opacity:1.0;fill-rule: evenodd"/>
<path id="Pocket009_f0005"  d="M 67.0 -97.5 L -67.0 -97.5 L -67.0 -93.5 L 67.00000000000001 -93.5 L 67.0 -97.5 Z " stroke="#191919" stroke-width="0.35 px" style="stroke-width:0.35;stroke-miterlimit:4;stroke-dasharray:none;stroke-linecap:square;fill:#cccccc;fill-opacity:1.0;fill-rule: evenodd"/>
<path id="Pocket009_f0006"  d="M -67.0 -97.5 L -67.0 -97.5 L 67.0 -97.5 L 67.0 -97.5 L -67.0 -97.5 Z " stroke="#191919" stroke-width="0.35 px" style="stroke-width:0.35;stroke-miterlimit:4;stroke-dasharray:none;stroke-linecap:square;fill:#cccccc;fill-opacity:1.0;fill-rule: evenodd"/>
<circle cx="-60.0" cy="-80.49999999999999" r="0.9" stroke="#191919" stroke-width="0.35 px" style="stroke-width:0.35;stroke-miterlimit:4;stroke-dasharray:none;stroke-linecap:square;fill:#cccccc"/>
<path id="Pocket009_f0008"  d="M -77.0 -75.0 L -67.0 -75.0 L -67.0 -75.0 L -77.0 -75.0 L -77.0 -75.0 Z " stroke="#191919" stroke-width="0.35 px" style="stroke-width:0.35;stroke-miterlimit:4;stroke-dasharray:none;stroke-linecap:square;fill:#cccccc;fill-opacity:1.0;fill-rule: evenodd"/>
<path id="Pocket009_f0009"  d="M -77.0 -25.0 L -77.0 -75.0 L -77.0 -75.0 L -77.0 -25.0 L -77.0 -25.0 Z " stroke="#191919" stroke-width="0.35 px" style="stroke-width:0.35;stroke-miterlimit:4;stroke-dasharray:none;stroke-linecap:square;fill:#cccccc;fill-opacity:1.0;fill-rule: evenodd"/>
<path id="Pocket009_f0010"  d="M -67.0 -25.0 L -77.0 -25.0 L -77.0 -25.0 L -67.0 -25.0 L -67.0 -25.0 Z " stroke="#191919" stroke-width="0.35 px" style="stroke-width:0.35;stroke-miterlimit:4;stroke-dasharray:none;stroke-linecap:square;fill:#cccccc;fill-opacity:1.0;fill-rule: evenodd"/>
<path id="Pocket009_f0011"  d="M -67.0 0.0 L -67.0 1e-15 L -67.0 -25.0 L -67.0 -25.0 L -67.0 0.0 Z " stroke="#191919" stroke-width="0.35 px" style="stroke-width:0.35;stroke-miterlimit:4;stroke-dasharray:none;stroke-linecap:square;fill:#cccccc;fill-opacity:1.0;fill-rule: evenodd"/>
<path id="Pocket009_f0012"  d="M -66.99999999999999 25.0 L -66.99999999999999 25.0 L -67.0 1e-15 L -67.0 0.0 L -66.99999999999999 25.0 Z " stroke="#191919" stroke-width="0.35 px" style="stroke-width:0.35;stroke-miterlimit:4;stroke-dasharray:none;stroke-linecap:square;fill:#cccccc;fill-opacity:1.0;fill-rule: evenodd"/>
<path id="Pocket009_f0013"  d="M -76.99999999999815 25.0 L -66.99999999999999 25.0 L -66.99999999999999 25.0 L -76.99999999999815 25.0 L -76.99999999999815 25.0 Z " stroke="#191919" stroke-width="0.35 px" style="stroke-width:0.35;stroke-miterlimit:4;stroke-dasharray:none;stroke-linecap:square;fill:#cccccc;fill-opacity:1.0;fill-rule: evenodd"/>
<path id="Pocket009_f0014"  d="M -76.99999999999815 75.0 L -76.99999999999815 25.0 L -76.99999999999815 25.0 L -76.99999999999815 75.0 L -76.99999999999815 75.0 Z " stroke="#191919" stroke-width="0.35 px" style="stroke-width:0.35;stroke-miterlimit:4;stroke-dasharray:none;stroke-linecap:square;fill:#cccccc;fill-opacity:1.0;fill-rule: evenodd"/>
<path id="Pocket009_f0015"  d="M -67.0 75.0 L -76.99999999999815 75.0 L -76.99999999999815 75.0 L -67.0 75.0 L -67.0 75.0 Z " stroke="#191919" stroke-width="0.35 px" style="stroke-width:0.35;stroke-miterlimit:4;stroke-dasharray:none;stroke-linecap:square;fill:#cccccc;fill-opacity:1.0;fill-rule: evenodd"/>
<path id="Pocket009_f0016"  d="M -67.0 97.5 L -67.0 75.0 L -67.0 75.0 L -67.0 97.5 L -67.0 97.5 Z " stroke="#191919" stroke-width="0.35 px" style="stroke-width:0.35;stroke-miterlimit:4;stroke-dasharray:none;stroke-linecap:square;fill:#cccccc;fill-opacity:1.0;fill-rule: evenodd"/>
<path id="Pocket009_f0017"  d="M 67.0 97.5 L 67.0 97.5 L -67.0 97.5 L -67.0 97.5 L 67.0 97.5 Z " stroke="#191919" stroke-width="0.35 px" style="stroke-width:0.35;stroke-miterlimit:4;stroke-dasharray:none;stroke-linecap:square;fill:#cccccc;fill-opacity:1.0;fill-rule: evenodd"/>
<path id="Pocket009_f0018"  d="M 67.0 75.0 L 67.0 75.0 L 67.0 97.5 L 67.0 97.5 L 67.0 75.0 Z " stroke="#191919" stroke-width="0.35 px" style="stroke-width:0.35;stroke-miterlimit:4;stroke-dasharray:none;stroke-linecap:square;fill:#cccccc;fill-opacity:1.0;fill-rule: evenodd"/>
<path id="Pocket009_f0019"  d="M 76.99999999999783 75.0 L 76.99999999999783 75.0 L 67.0 75.0 L 67.0 75.0 L 76.99999999999783 75.0 Z " stroke="#191919" stroke-width="0.35 px" style="stroke-width:0.35;stroke-miterlimit:4;stroke-dasharray:none;stroke-linecap:square;fill:#cccccc;fill-opacity:1.0;fill-rule: evenodd"/>
<path id="Pocket009_f0020"  d="M 76.99999999999783 25.0 L 76.99999999999783 25.0 L 76.99999999999783 75.0 L 76.99999999999783 75.0 L 76.99999999999783 25.0 Z " stroke="#191919" stroke-width="0.35 px" style="stroke-width:0.35;stroke-miterlimit:4;stroke-dasharray:none;stroke-linecap:square;fill:#cccccc;fill-opacity:1.0;fill-rule: evenodd"/>
<path id="Pocket009_f0021"  d="M 67.0 25.0 L 67.0 25.0 L 76.99999999999783 25.0 L 76.99999999999783 25.0 L 67.0 25.0 Z " stroke="#191919" stroke-width="0.35 px" style="stroke-width:0.35;stroke-miterlimit:4;stroke-dasharray:none;stroke-linecap:square;fill:#cccccc;fill-opacity:1.0;fill-rule: evenodd"/>
<path id="Pocket009_f0022"  d="M 67.0 0.0 L 67.0 1e-15 L 67.0 25.0 L 67.0 25.0 L 67.0 0.0 Z " stroke="#191919" stroke-width="0.35 px" style="stroke-width:0.35;stroke-miterlimit:4;stroke-dasharray:none;stroke-linecap:square;fill:#cccccc;fill-opacity:1.0;fill-rule: evenodd"/>
<path id="Pocket009_f0023"  d="M 67.0 -25.0 L 67.0 -25.0 L 67.0 1e-15 L 67.0 0.0 L 67.0 -25.0 Z " stroke="#191919" stroke-width="0.35 px" style="stroke-width:0.35;stroke-miterlimit:4;stroke-dasharray:none;stroke-linecap:square;fill:#cccccc;fill-opacity:1.0;fill-rule: evenodd"/>
<path id="Pocket009_f0024"  d="M 77.00000000000699 -25.0 L 77.00000000000699 -25.0 L 67.0 -25.0 L 67.0 -25.0 L 77.00000000000699 -25.0 Z " stroke="#191919" stroke-width="0.35 px" style="stroke-width:0.35;stroke-miterlimit:4;stroke-dasharray:none;stroke-linecap:square;fill:#cccccc;fill-opacity:1.0;fill-rule: evenodd"/>
<path id="Pocket009_f0025"  d="M 77.00000000000699 -75.0 L 77.00000000000699 -75.0 L 77.00000000000699 -25.0 L 77.00000000000699 -25.0 L 77.00000000000699 -75.0 Z " stroke="#191919" stroke-width="0.35 px" style="stroke-width:0.35;stroke-miterlimit:4;stroke-dasharray:none;stroke-linecap:square;fill:#cccccc;fill-opacity:1.0;fill-rule: evenodd"/>
<path id="Pocket009_f0026"  d="M 67.0 -75.0 L 67.0 -75.0 L 77.00000000000699 -75.0 L 77.00000000000699 -75.0 L 67.0 -75.0 Z " stroke="#191919" stroke-width="0.35 px" style="stroke-width:0.35;stroke-miterlimit:4;stroke-dasharray:none;stroke-linecap:square;fill:#cccccc;fill-opacity:1.0;fill-rule: evenodd"/>
<path id="Pocket009_f0027"  d="M 67.00000000000001 -93.5 L 67.00000000000001 -87.5 L 67.00000000000001 -87.5 L 67.0 -75.0 L 67.0 -75.0 L 67.0 -97.5 L 67.0 -97.5 L 67.00000000000001 -93.5 L 67.00000000000001 -93.5 Z " stroke="#191919" stroke-width="0.35 px" style="stroke-width:0.35;stroke-miterlimit:4;stroke-dasharray:none;stroke-linecap:square;fill:#cccccc;fill-opacity:1.0;fill-rule: evenodd"/>
<circle cx="-60.0" cy="-80.49999999999999" r="0.9" stroke="#191919" stroke-width="0.35 px" style="stroke-width:0.35;stroke-miterlimit:4;stroke-dasharray:none;stroke-linecap:square;fill:#cccccc"/>
<circle cx="-1.999999999999993" cy="-80.49999999999999" r="0.9" stroke="#191919" stroke-width="0.35 px" style="stroke-width:0.35;stroke-miterlimit:4;stroke-dasharray:none;stroke-linecap:square;fill:#cccccc"/>
<circle cx="-60.0" cy="-31.499999999999986" r="0.9" stroke="#191919" stroke-width="0.35 px" style="stroke-width:0.35;stroke-miterlimit:4;stroke-dasharray:none;stroke-linecap:square;fill:#cccccc"/>
<circle cx="-58.05" cy="-19.499999999999986" r="1.4" stroke="#191919" stroke-width="0.35 px" style="stroke-width:0.35;stroke-miterlimit:4;stroke-dasharray:none;stroke-linecap:square;fill:#cccccc"/>
<circle cx="-1.999999999999993" cy="-31.499999999999986" r="0.9" stroke="#191919" stroke-width="0.35 px" style="stroke-width:0.35;stroke-miterlimit:4;stroke-dasharray:none;stroke-linecap:square;fill:#cccccc"/>
<circle cx="57.75" cy="-19.499999999999986" r="1.4" stroke="#191919" stroke-width="0.35 px" style="stroke-width:0.35;stroke-miterlimit:4;stroke-dasharray:none;stroke-linecap:square;fill:#cccccc"/>
<circle cx="-58.05" cy="45.30000000000001" r="1.4" stroke="#191919" stroke-width="0.35 px" style="stroke-width:0.35;stroke-miterlimit:4;stroke-dasharray:none;stroke-linecap:square;fill:#cccccc"/>
<circle cx="57.75" cy="45.30000000000001" r="1.4" stroke="#191919" stroke-width="0.35 px" style="stroke-width:0.35;stroke-miterlimit:4;stroke-dasharray:none;stroke-linecap:square;fill:#cccccc"/>
<path id="Pocket009_f0036"  d="M 37.64999999996064 55.30000000000001 L 37.64999999996064 55.30000000000001 L 37.64999999996064 89.60000000000001 L 37.64999999996064 89.60000000000001 L 37.64999999996064 55.30000000000001 Z " stroke="#191919" stroke-width="0.35 px" style="stroke-width:0.35;stroke-miterlimit:4;stroke-dasharray:none;stroke-linecap:square;fill:#cccccc;fill-opacity:1.0;fill-rule: evenodd"/>
<path id="Pocket009_f0037"  d="M 0.0 55.30000000000001 L 0.0 55.30000000000001 L 37.64999999996064 55.30000000000001 L 37.64999999996064 55.30000000000001 L 0.0 55.30000000000001 Z " stroke="#191919" stroke-width="0.35 px" style="stroke-width:0.35;stroke-miterlimit:4;stroke-dasharray:none;stroke-linecap:square;fill:#cccccc;fill-opacity:1.0;fill-rule: evenodd"/>
<path id="Pocket009_f0038"  d="M 37.64999999996064 89.60000000000001 L 37.64999999996064 89.60000000000001 L -37.650000000039356 89.60000000000001 L -37.650000000039356 89.60000000000001 L 37.64999999996064 89.60000000000001 Z " stroke="#191919" stroke-width="0.35 px" style="stroke-width:0.35;stroke-miterlimit:4;stroke-dasharray:none;stroke-linecap:square;fill:#cccccc;fill-opacity:1.0;fill-rule: evenodd"/>
<path id="Pocket009_f0039"  d="M -37.650000000039356 55.30000000000001 L -37.650000000039356 55.30000000000001 L 0.0 55.30000000000001 L 0.0 55.30000000000001 L -37.650000000039356 55.30000000000001 Z " stroke="#191919" stroke-width="0.35 px" style="stroke-width:0.35;stroke-miterlimit:4;stroke-dasharray:none;stroke-linecap:square;fill:#cccccc;fill-opacity:1.0;fill-rule: evenodd"/>
<path id="Pocket009_f0040"  d="M -37.650000000039356 89.60000000000001 L -37.650000000039356 89.60000000000001 L -37.650000000039356 55.30000000000001 L -37.650000000039356 55.30000000000001 L -37.650000000039356 89.60000000000001 Z " stroke="#191919" stroke-width="0.35 px" style="stroke-width:0.35;stroke-miterlimit:4;stroke-dasharray:none;stroke-linecap:square;fill:#cccccc;fill-opacity:1.0;fill-rule: evenodd"/>
<title>b'Pocket009'</title>
</g>
</svg>